<?xml version="1.0" encoding="iso-8859-1"?>
<!-- Generator: Adobe Illustrator 19.0.0, SVG Export Plug-In . SVG Version: 6.00 Build 0)  -->
<svg version="1.1" id="Capa_1" xmlns="http://www.w3.org/2000/svg" xmlns:xlink="http://www.w3.org/1999/xlink" x="0px" y="0px"
	 viewBox="0 0 472.035 472.035" style="enable-background:new 0 0 472.035 472.035;" xml:space="preserve">
<g>
	<g>
		<g>
			<path d="M469.152,253.732c-6.562-13.39-22.736-18.926-36.127-12.364c-0.094,0.046-0.188,0.093-0.281,0.14
				c-0.305,0.149-0.599,0.32-0.88,0.512l-66.16,44.744L314.64,260.98c-3.372-1.722-4.71-5.852-2.988-9.224
				c1.146-2.243,3.429-3.678,5.948-3.736h28.888c15.404-0.071,27.843-12.596,27.808-28c0-11.005-8.891-19.943-19.896-20h-83.2
				c-2.141,0.007-4.189,0.871-5.688,2.4l-37.232,37.6H152v-112c0-4.418-3.582-8-8-8H8c-4.418,0-8,3.582-8,8v336c0,4.418,3.582,8,8,8
				h136c4.418,0,8-3.582,8-8v-96h40c4.418,0,8-3.582,8-8v-24.944l55.024-6.944l92.864,20.088c3.267,0.707,6.601,1.064,9.944,1.064
				c9.685,0.001,19.139-2.958,27.096-8.48l75.744-52.712C471.549,280.273,475.143,265.715,469.152,253.732z M136,456.021H16v-320
				h120v104h-16v-80c0-4.418-3.582-8-8-8H40c-4.418,0-8,3.582-8,8v232c0,4.418,3.582,8,8,8h72c4.418,0,8-3.582,8-8v-24h16V456.021z
				 M48,352.021v-96h72v96H48z M104,368.021v16H48v-16H104z M48,240.02v-72h56v72H48z M184,352.021h-48v-96h48V352.021z
				 M451.424,275.029l-75.632,52.64c-7.133,4.972-16.014,6.752-24.512,4.912l-94.208-20.384c-0.558-0.114-1.126-0.173-1.696-0.176
				c-0.334,0.001-0.668,0.023-1,0.064l-54.4,6.864v-62.928h31.616c2.138-0.009,4.183-0.873,5.68-2.4l37.288-37.6h79.84
				c2.176,0.035,3.915,1.823,3.888,4c0.044,6.568-5.232,11.934-11.8,12H317.6c-12.623,0.089-22.783,10.394-22.694,23.017
				c0.06,8.552,4.89,16.355,12.518,20.223l55.264,27.904c2.591,1.306,5.686,1.107,8.088-0.52l69.6-47.048
				c2.516-1.154,5.377-1.306,8-0.424c2.828,0.942,5.16,2.979,6.472,5.656C457.329,265.763,455.881,271.767,451.424,275.029z"/>
			<path d="M288,88.02h16v88c0,4.418,3.582,8,8,8h128c4.418,0,8-3.582,8-8v-88h16c4.418,0,8-3.582,8-8v-32c0-4.418-3.582-8-8-8
				h-46.016c1.274-1.612,2.331-3.385,3.144-5.272l1-2.4c3.301-7.687,2.197-16.557-2.888-23.2
				c-4.916-6.585-13.004-10.002-21.152-8.936l-4.184,0.536c-6.779,0.874-12.821,4.71-16.496,10.472
				c-3.664-5.764-9.699-9.603-16.472-10.48l-4.192-0.536c-8.147-1.059-16.232,2.357-21.152,8.936
				c-5.088,6.641-6.195,15.512-2.896,23.2l1.008,2.4c0.809,1.892,1.867,3.667,3.144,5.28H288c-4.418,0-8,3.582-8,8v32
				C280,84.439,283.582,88.02,288,88.02z M344,168.02h-24v-80h24V168.02z M392,168.02h-32v-80h32V168.02z M432,168.02h-24v-80h24
				V168.02z M456,56.02v16h-48v-16H456z M389.384,23.74c0.241-0.511,0.423-1.048,0.544-1.6c0.639-2.914,3.028-5.121,5.984-5.528
				l4.192-0.528c2.467-0.311,4.911,0.728,6.4,2.72c1.609,2.1,1.955,4.908,0.904,7.336l-1,2.4c-0.779,1.853-2.309,3.287-4.208,3.944
				c-0.707-0.262-1.448-0.418-2.2-0.464h-13.368l-0.544-1.216L389.384,23.74z M392,56.02v16h-32v-16H392z M348.328,18.812
				c1.282-1.737,3.305-2.771,5.464-2.792c0.313,0.002,0.626,0.024,0.936,0.064l4.2,0.528c2.952,0.409,5.335,2.616,5.968,5.528
				c0.118,0.504,0.281,0.997,0.488,1.472l3.128,7.04l-0.64,1.368H352c-0.064,0-0.12,0-0.192,0c-1.507-0.745-2.701-2.001-3.368-3.544
				l-1.008-2.4c-1.021-2.408-0.676-5.179,0.904-7.264H348.328z M296,56.02h48v16h-48V56.02z"/>
			<rect x="232" y="0.02" width="16" height="16"/>
			<rect x="216" y="16.02" width="16" height="16"/>
			<rect x="232" y="32.02" width="16" height="16"/>
			<rect x="248" y="16.02" width="16" height="16"/>
			<rect x="208" y="120.02" width="16" height="16"/>
			<rect x="184" y="144.02" width="16" height="16"/>
			<rect x="208" y="168.02" width="16" height="16"/>
			<rect x="232" y="144.02" width="16" height="16"/>
			<rect x="360" y="392.021" width="16" height="16"/>
			<rect x="344" y="408.021" width="16" height="16"/>
			<rect x="360" y="424.021" width="16" height="16"/>
			<rect x="376" y="408.021" width="16" height="16"/>
		</g>
	</g>
</g>
<g>
</g>
<g>
</g>
<g>
</g>
<g>
</g>
<g>
</g>
<g>
</g>
<g>
</g>
<g>
</g>
<g>
</g>
<g>
</g>
<g>
</g>
<g>
</g>
<g>
</g>
<g>
</g>
<g>
</g>
</svg>
