<?xml version="1.0" encoding="UTF-8"?>
<svg xmlns="http://www.w3.org/2000/svg" viewBox="0 0 512 512" width="512" height="512"><g id="Solid"><path d="M185.78906,143.57812a21.52062,21.52062,0,0,1,20.42188,0,4.00046,4.00046,0,0,0,3.57812-7.15624,29.4269,29.4269,0,0,0-27.57812,0,4.00046,4.00046,0,0,0,3.57812,7.15624Z"/><path d="M265.78906,143.57812a21.52062,21.52062,0,0,1,20.42188,0,4.00046,4.00046,0,0,0,3.57812-7.15624,29.4269,29.4269,0,0,0-27.57812,0,4.00046,4.00046,0,1,0,3.57812,7.15624Z"/><path d="M290.44043,204.56934C290.44043,200.61621,287.70605,196,280,196H232c-7.70605,0-10.44043,4.61621-10.44043,8.56934C221.55957,213.78613,236.34863,228,256,228S290.44043,213.78613,290.44043,204.56934Zm-59.11328,3.91406c-1.666-2.29395-1.81738-3.69141-1.76172-4.05469A4.70634,4.70634,0,0,1,232,204h48a4.70634,4.70634,0,0,1,2.43457.42871c.05566.36328-.0957,1.76074-1.76172,4.05469C276.64453,214.03027,267.20605,220,256,220S235.35547,214.03027,231.32715,208.4834Z"/><path d="M404.76,342.10986c-24.59009-25.25-54.34009-35.93994-80.55-45.05981,5.16992-8.49,16.04-29.8-5.31982-41.64014,17.98974-15.65991,53.77978-37.57983,56.90991-67.51A24.79612,24.79612,0,0,0,392,164.51v-3.54a24.82286,24.82286,0,0,0-16.02-23.32983c-.25-44.21021-3.35986-72.13013-17.54-91.39014C342.82007,25.05005,314.57007,16,264,16c-38.42993,0-65.31006,7.92993-82.16992,24.25C166.93994,54.66992,160,74.92993,160,104v88c0,34.48,19.73,50.74,35.12012,62.41992C175.91992,263.5,177.75,280.83008,187.79,297.05005c-25.29,8.61987-55.96,19.80981-80.55,45.05981C78.14014,372,64,414.49,64,472v24h84V400a4,4,0,0,1,8,0v96h88c0-90.28-10.35986-135.51-22.16992-163.27a83.93626,83.93626,0,0,0,68.33984,0C278.35986,360.49,268,405.72,268,496h88V400a4,4,0,0,1,8,0v96h84V472C448,414.49,433.85986,372,404.76,342.10986ZM172,104c0-16.96,2.55-30.35986,7.87012-40.97,8.52978-1.88013,16.25,1.55981,25.10986,5.51C213.22,72.21,221.74,76,232,76c12.21,0,18.97-3.8999,25.5-7.67993C264.59009,64.23,271.91992,60,288,60c23.89014,0,36,6.73,36,20v52h-8.07007C316,130.42993,316,129.07007,316,128c0-2.08008-.01-7.74-21.47-9.48l-3.01-3.02a8.00639,8.00639,0,0,0-8.18994-1.93994l-14.14014,4.71C244.02,119.62988,244,125.80005,244,128c0,1.07007,0,2.42993.07007,4h-8.14014C236,130.42993,236,129.07007,236,128c0-2.2-.02-8.37012-25.18994-9.73l-14.14014-4.71A8.00639,8.00639,0,0,0,188.48,115.5l-3.01,3.02A65.48774,65.48774,0,0,0,172,120.75Zm135.99,25.16992C307.79,141.90991,304.08008,156,280,156s-27.79-14.09009-27.99-26.83008c1.58008-.79,5.47-1.71,11.34009-2.34985a4.16782,4.16782,0,0,0,2.96,1.17993h28.04a3.8829,3.8829,0,0,0,2.79-1.12988C302.74,127.51,306.46,128.3999,307.99,129.16992Zm-80,0C227.79,141.90991,224.08008,156,200,156s-27.79-14.09009-27.99-26.83008c1.53-.77,5.25-1.65991,10.84985-2.2998A3.8829,3.8829,0,0,0,185.6499,128h28.04a4.16782,4.16782,0,0,0,2.96-1.17993C222.52,127.46,226.40991,128.37988,227.99,129.16992Zm67.90015,191.48a75.77237,75.77237,0,0,1-79.78028,0c-3.5498-6.74-7.09985-12.34985-10.42993-17.52978.31006-.13013.62012-.26026.92993-.40015a67.96639,67.96639,0,0,0,98.77.02l.93018.38989C302.99,308.30005,299.43994,313.90991,295.89014,320.6499ZM284,280c0,8.64014,5.43994,14.3999,13.77,19.05005a59.94222,59.94222,0,0,1-83.54,0c8.46-4.7,13.77-10.40991,13.77-19.05,0-15.77-11.55-24.5-23.79-33.75C189.10986,234.83984,172,221.8999,172,192V153.78c6.1001,6.78,15.49,10.22,28,10.22,8.26,0,15.15991-1.51,20.6499-4.48A15.97038,15.97038,0,0,0,236,180h4a4,4,0,0,0,0-8h-4a8,8,0,0,1,0-16h4a4,4,0,0,0,0-8h-4a15.89756,15.89756,0,0,0-4.33008.60986A32.99612,32.99612,0,0,0,234.89014,140h10.21972a32.17756,32.17756,0,0,0,3.42017,8.98C254.22,158.95,264.81006,164,280,164s25.78-5.05,31.47-15.02a32.17756,32.17756,0,0,0,3.42017-8.98H324v12a15.45715,15.45715,0,0,0,5.09009,11.99A16.34025,16.34025,0,0,0,340,168c7.5,0,15.09009-4.89014,15.91992-14.27l1.93994-1.92993A12.9684,12.9684,0,0,1,380,160.97v3.54a12.90956,12.90956,0,0,1-8.1499,12.04L345.29,187.17993a3.99344,3.99344,0,0,0-2.1499,2.05c-8.16016,17.87012-20.77,31.14014-31.89014,42.8501C296.62988,247.49,284,260.79,284,280Z"/></g></svg>
