<?xml version="1.0" encoding="UTF-8"?>
<svg xmlns="http://www.w3.org/2000/svg" viewBox="0 0 512 512" width="512" height="512"><g id="Solid"><circle cx="268" cy="468" r="4"/><circle cx="280" cy="184" r="8"/><circle cx="200" cy="184" r="8"/><path d="M234.82031,259.09424c4.33985,3.55517,13.11328,4.56006,17.21387,4.59472,4.03223-.03466,12.80566-1.03955,17.14551-4.59521,6.67773-5.47168,8.99121-18.94629,9.2334-20.46436a3.99877,3.99877,0,0,0-1.29-3.61669C271.68262,230.16846,260.585,228,252,228s-19.68262,2.16846-25.12305,7.0127a3.99877,3.99877,0,0,0-1.29,3.61669C225.8291,240.14746,228.14258,253.62207,234.82031,259.09424ZM252,236c6.89258,0,14.08789,1.5542,18.04492,3.77051-1.04492,4.64648-3.17676,10.874-5.93554,13.13525-1.76075,1.44238-7.43555,2.74268-12.0752,2.7832-4.708-.04052-10.38281-1.34082-12.14356-2.78271-2.75976-2.26172-4.8916-8.49121-5.93554-13.13574C237.91211,237.5542,245.10742,236,252,236Z"/><path d="M328,428H288a4.0002,4.0002,0,0,0-4,4v32a4.00178,4.00178,0,0,0,1.501,3.12354l20,16a4.00091,4.00091,0,0,0,4.998,0l20-16A4.00178,4.00178,0,0,0,332,464V432A4.0002,4.0002,0,0,0,328,428Zm-4,34.07764-16,12.7998-16-12.7998V436h32Z"/><path d="M436.23,417.62c-7.10986-20.03-17.69995-37.36-31.47-51.5-24.6001-25.27-54.07007-35.70008-77.76-44.08-17.32007-6.13013-31-10.98-31-18.04,0-5.47,7.14014-9.28,24.21-16.29C348.80005,275.97,392,258.22,392,192c0-49.95-3.66992-82.65-11.54-102.9-7.8-20.04-19.31006-27.3-30.85986-31.61C340.77,41.81,326.29,30.96,305.40991,24.37,287.32007,18.66,264,16,232,16c-33.40991,0-77.52,4.71-79.8999,44.56,0,15.62,10.41992,29.24,20.75,35.81a55.92862,55.92862,0,0,0,12.00976,5.61C196.62012,106.01,212.17993,108,232,108h70.60986C306.58008,111.43,323,128.24,323.95,172h-8.02C316,170.43,316,169.07,316,168c0-2.08-.01-7.74-21.47-9.48l-3.01-3.02a8.02744,8.02744,0,0,0-8.18994-1.94l-14.14014,4.71C244.02,159.63,244,165.81,244,168c0,1.07,0,2.43.07007,4h-8.14014C236,170.43,236,169.07,236,168a5.961,5.961,0,0,0-2.32007-4.62C230.24,160.51,221.22,158.95,211,158.34l-14.33008-4.78A8.02744,8.02744,0,0,0,188.48,155.5l-3.10986,3.11c-1.46021.13-2.87012.26-4.19019.42.05-4.93-.34985-10.18-.77-15.54-.90991-11.69-1.82983-23.66,1.33008-34.11a63.15909,63.15909,0,0,1-13.17993-6.26C157.43994,96.05,146.23,81.95,144.37012,65.35a34.02418,34.02418,0,0,0-8.81006,11.82c-5.7002,12.07-4.90015,29.11,2.35986,50.65.06006.18.13013.35.21.53,5.17017,12.29,4.58008,18.52,3.42017,20.27-.64014.97-2.67993,1.11-3.84009,1.11a.65853.65853,0,0,0-.13989.01H137.45c-5.93994,0-10.09009-8.87-10.09985-8.89A7.997,7.997,0,0,0,112,144a69.738,69.738,0,0,0,4.8501,23.44C123.46,183.51,135.60986,192,152,192a56.82321,56.82321,0,0,0,8-.53V216c0,35.87,21.37012,52.03,36.98,63.83,11.79,8.91,19.02,14.85,19.02,24.17,0,7.06006-13.67993,11.90991-31.01,18.04-23.67993,8.37988-53.1499,18.80994-77.75,44.08-13.77,14.14-24.36011,31.47-31.46,51.5A5.99078,5.99078,0,0,0,78.21,424.68994L90.54,432.54C88,453.97,88,478.11,88,496h12c0-17.21.01-40.3,2.3-60.72L148,464.36V496h8V400a4,4,0,0,0-8,0v54.88L88.75,417.17993v-.01A124.82115,124.82115,0,0,1,115.84009,374.49c20.53-21.09009,45.48-31.21,66.73-38.85L172.21,366.73a3.9987,3.9987,0,0,0,4.76,5.15l24.92993-6.2301L196.21,382.73A3.99,3.99,0,0,0,200,388c9.10986,0,22,11.17993,33.64014,29.16992C244.45,433.88,252,453.13,252,464v32h8V464c0-10.87,7.55-30.12,18.35986-46.83008C290,399.17993,302.89014,388,312,388a3.99,3.99,0,0,0,3.79-5.27L310.1001,365.6499,335.03,371.88a3.9987,3.9987,0,0,0,4.76-5.15l-10.36011-31.09c21.25,7.64,46.2,17.75,66.73,38.85A124.82115,124.82115,0,0,1,423.25,417.16992L364,454.88V400a4,4,0,0,0-8,0v96h8V464.36l45.7-29.08C411.99,455.7,412,478.79,412,496h12c0-17.89,0-42.03-2.54-63.46l12.33008-7.8501A6.00817,6.00817,0,0,0,436.23,417.62ZM203.58008,49.79C197.96,61.02,196.47,82.37,203.49,98.19q-4.95007-.735-9.25-1.77c-5.78-17.37-3.8-38.22,2.17993-50.21a4.00264,4.00264,0,0,1,7.16016,3.58ZM219.46,99.7c-7.16992-17.83-5.46-40.64.96-53.49a4.00264,4.00264,0,0,1,7.16016,3.58c-6.05,12.09-7.01,34.61.77,50.18Q223.73,99.925,219.46,99.7ZM323.76,126.18a82.66793,82.66793,0,0,0-3.86011-8.4c19.57007,2.91,37.7002-8.98,37.88013-9.11a4.00214,4.00214,0,1,1,4.43994,6.66c-.77.51-16.63989,10.92-35.97,10.92C325.42993,126.25,324.59009,126.23,323.76,126.18Zm39.07007,4.65A43.928,43.928,0,0,1,333.45,142.25a41.25192,41.25192,0,0,1-4.88989-.28c-.66992-3.01-1.41992-5.82-2.23-8.44a36.093,36.093,0,0,0,30.83984-8.36,4.00227,4.00227,0,1,1,5.66016,5.66Zm.38989,15.54c-.41992.58-8.97,11.89-25.92993,11.89a40.0814,40.0814,0,0,1-6.18994-.49q-.46509-4.365-1.11011-8.34c17.96,3.87,26.68994-7.68,26.79-7.8a3.99814,3.99814,0,1,1,6.43994,4.74ZM263.3501,166.82a4.16787,4.16787,0,0,0,2.96,1.18h28.04a3.88274,3.88274,0,0,0,2.79-1.13c5.59985.64,9.31982,1.53,10.84985,2.3C307.79,181.91,304.08008,196,280,196s-27.79-14.09-27.99-26.83C253.59009,168.38,257.48,167.46,263.3501,166.82ZM174.72,180.29c3.3-3.57,5.02-8.06,5.84009-13.14.74-.1,1.5-.2,2.28-.29A3.93692,3.93692,0,0,0,185.6499,168h28.04a4.18245,4.18245,0,0,0,3-1.23c5.34009.56,9.49,1.38,11.3,2.37C227.80005,181.89,224.09009,196,200,196c-14.15991,0-22.76-4.84-26.22-14.76C174.1001,180.94,174.41992,180.62,174.72,180.29Zm65.63989,232.54c-14.84985-22.95-27.46-30.03992-35.05981-32.08l6.49-19.48a3.9987,3.9987,0,0,0-4.76-5.15l-24.92993,6.23,10.04-30.11c7.77978-2.77,14.85986-5.39,20.63989-8.41,19.71,26.63,37.09985,75.72009,39.03,110.06005A156.9478,156.9478,0,0,0,240.35986,412.83ZM256,406.83C249.3501,375.77,235.2,341,219.59009,319.58,224.85986,315.53,228,310.63,228,304c0-15.77-11.55-24.5-23.79-33.75C189.10986,258.84,172,245.9,172,216V193.79c5.24,5.8,13.87012,10.21,28,10.21,8.26,0,15.15991-1.51,20.6499-4.48A15.97043,15.97043,0,0,0,236,220h4a4,4,0,0,0,0-8h-4a8,8,0,0,1,0-16h4a4,4,0,0,0,0-8h-4a15.89258,15.89258,0,0,0-4.33008.61,32.99943,32.99943,0,0,0,3.22022-8.61h10.21972a32.17756,32.17756,0,0,0,3.42017,8.98C254.22,198.95,264.81006,204,280,204s25.78-5.05,31.47-15.02a32.17756,32.17756,0,0,0,3.42017-8.98h9.53979a14.91578,14.91578,0,0,0,4.66016,7.99A16.34085,16.34085,0,0,0,340,192c7.5,0,15.09009-4.89,15.91992-14.27l1.93994-1.93A12.97086,12.97086,0,0,1,379.97,184.04c.01,1.59.02,3.19.03,4.83a12.90888,12.90888,0,0,1-8.1499,11.68L345.29,211.18a4.00864,4.00864,0,0,0-2.34009,2.55c-7.55,24.89-22.22,38.62-35.15991,50.74C295.03,276.41992,284,286.74,284,304c0,6.63,3.14014,11.53,8.40991,15.58C276.79,341.01,262.64014,375.77,256,406.83Zm73.8999-44.48L304.97,356.12a3.9987,3.9987,0,0,0-4.76,5.15l6.49,19.48c-7.59985,2.04-20.21,9.13-35.05981,32.08a156.9478,156.9478,0,0,0-11.4502,21.06c1.93018-34.38,19.30005-83.42,39.03-110.06,5.78,3.02,12.86011,5.64,20.63989,8.41Z"/></g></svg>
