<?xml version="1.0" encoding="UTF-8"?>
<svg xmlns="http://www.w3.org/2000/svg" viewBox="0 0 512 512" width="512" height="512"><g id="Solid"><path d="M261.19336,229.1499C260.90527,229.42969,253.96484,236,240,236a4,4,0,0,0,0,8c17.45605,0,26.4541-8.79688,26.82812-9.17139a4.00007,4.00007,0,0,0-5.63476-5.67871Z"/><path d="M336,420H288a4,4,0,0,0,0,8h48a4,4,0,0,0,0-8Z"/><path d="M163.57812,466.21094C159.68066,458.41748,156,451.05566,156,440c0-21.9165,14.625-36.96533,14.833-37.17627a3.99992,3.99992,0,0,0-5.66113-5.65234C164.4707,397.87256,148,414.63477,148,440c0,12.94434,4.28125,21.50732,8.42188,29.78906C160.31934,477.58252,164,484.94434,164,496h8C172,483.05566,167.71875,474.49268,163.57812,466.21094Z"/><path d="M355.57812,469.78906C359.71875,461.50732,364,452.94434,364,440c0-25.36523-16.4707-42.12744-17.17188-42.82861a3.99991,3.99991,0,1,0-5.65624,5.65722C341.32031,402.97656,356,417.91211,356,440c0,11.05566-3.68066,18.41748-7.57812,26.21094C344.28125,474.49268,340,483.05566,340,496h8C348,484.94434,351.68066,477.58252,355.57812,469.78906Z"/><path d="M404.76,366.12c-19.22-19.75-41.25-30.37-61.5-38.16a41.00178,41.00178,0,0,0,9.45-17.81006A33.97164,33.97164,0,0,0,370.82007,311.23c9.71-2.3,17.08984-9.65,20.77-20.69995,6.09985-18.29-2.71021-29.84009-9.13013-38.28-3.47-4.54-6.46-8.47-6.46-12.25,0-21.52,8.66992-29.28,18.7-38.26C404.67993,192.80005,416,182.65991,416,160a67.12616,67.12616,0,0,0-3.40991-19.53c-4.04-12.12-11.21021-20.99-20.8501-25.89C389.89014,95.29,378.54,81.23,371.65991,74.34c-9.1499-9.14-20.17993-15.65-29.71-17.67a53.49042,53.49042,0,0,0-13.57007-18.59C308.31006,19.83,277.93994,16,256,16c-42.35986,0-67.42993,18.33-81,33.71-14.76,16.73-21.3,35.99-22.69995,48.98-8.5,4.38013-24.3,15.48-24.3,37.31006,0,15.31006,9.75,25.06006,18.34009,33.65991,4.2727,4.273,8.20434,8.2002,10.73852,12.453a16.09336,16.09336,0,0,1,1.91162,11.671l-.01025.046a16.58193,16.58193,0,0,1-2.37012,6.01,5.68853,5.68853,0,0,1-3.96,2.5c-1.00976.16-2.87988.31994-4.01953-.65a3.0808,3.0808,0,0,1-.69043-3.37988c.66992-1.90015,3.22022-2.31006,4.16992-2.3501A3.97218,3.97218,0,0,0,152,188.03a14.588,14.588,0,0,0-6.35986,1.09,12.04344,12.04344,0,0,0-5.48,4.64,12.68053,12.68053,0,0,0,.5,14.2c4.35009,5.66,10.6997,5.65,12.77,5.62A17.84053,17.84053,0,0,0,160,212.18188V216c0,11.93018,2.2998,22.34961,7.02344,31.77734-1.39356,8.93457-3.96,11.061-8.05371,14.45215-1.40137,1.16162-2.99121,2.478-4.626,4.11377-11.99219,11.99072-16.26758,26.5332-11.43652,38.90088a28.61106,28.61106,0,0,0,16.40429,16.18311,32.39979,32.39979,0,0,0,18.16211,1.26806q.334.89357.73438,1.75684c-22.36621,8.04639-48.67188,18.75976-70.96875,41.665C78.14355,396.00439,64,438.48926,64,496H76c0-97.70386,43.14453-132.854,83.44312-151.15869A76.73873,76.73873,0,0,1,164,368a4,4,0,0,0,8,0,83.07558,83.07558,0,0,0-5.19824-26.3407q2.8938-1.194,5.741-2.29236C197.14258,362.17822,242.42188,364,256,364s58.85718-1.82178,83.45728-24.63306q2.84581,1.10285,5.741,2.29236A83.07558,83.07558,0,0,0,340,368a4,4,0,0,0,8,0,75.93353,75.93353,0,0,1,4.55322-23.16016C392.853,363.144,436,398.29333,436,496h12C448,438.49,433.85986,396,404.76,366.12ZM172,146.13c20.01-13.56994,32.18994-25.77,37.26-37.5a48.1643,48.1643,0,0,0,12.3,10.45c13.18994,8.16,34.97,14.3,55.25,6.67,1.97,7.09,7.45,13.92993,15.24,18.75,8.67993,5.36,18.1499,6.95,26.09009,4.53a138.72511,138.72511,0,0,0,15.22534,21.25879A10.98768,10.98768,0,0,1,334.55835,172H305.293a28.18718,28.18718,0,0,0-10.894-12.00342,3.99822,3.99822,0,0,0,2.78588-6.82275l-5.66406-5.6731a8,8,0,0,0-8.18872-1.93786l-18.37158,6.11731a4.26864,4.26864,0,0,0,.71777,8.272A28.18688,28.18688,0,0,0,254.707,172H225.293a28.18688,28.18688,0,0,0-10.97119-12.04785,4.26864,4.26864,0,0,0,.71777-8.272L196.668,145.56287a8,8,0,0,0-8.18872,1.93786l-5.66406,5.6731a3.99822,3.99822,0,0,0,2.78588,6.82275A28.18718,28.18718,0,0,0,174.707,172H172ZM280,176a7.99941,7.99941,0,0,0-7.59473,5.49658c-.56982-.17541-1.12793-.36255-1.65771-.57751a8.64668,8.64668,0,0,1-3.238-2.12586A4.00482,4.00482,0,0,1,266.58325,176l.00025-.02234-.00025-.022a2.57628,2.57628,0,0,0-3.6521-2.32593,19.82724,19.82724,0,1,1-1.48242,2.9353,8.845,8.845,0,0,0,.66235,2.8003,8.17214,8.17214,0,0,0,2.022,2.82177,11.82466,11.82466,0,0,0,5.39575,2.64844,19.43333,19.43333,0,0,0,2.58105.43128A7.9959,7.9959,0,1,0,280,176Zm-80,0a7.99941,7.99941,0,0,0-7.59473,5.49658c-.56982-.17541-1.12793-.36255-1.65771-.57751a8.64668,8.64668,0,0,1-3.238-2.12586A4.00482,4.00482,0,0,1,186.58325,176l.00025-.02234-.00025-.022a2.57628,2.57628,0,0,0-3.6521-2.32593,19.82724,19.82724,0,1,1-1.48242,2.9353,8.845,8.845,0,0,0,.66235,2.8003,8.17214,8.17214,0,0,0,2.022,2.82177,11.82466,11.82466,0,0,0,5.39575,2.64844,19.43333,19.43333,0,0,0,2.58105.43128A7.9959,7.9959,0,1,0,200,176Zm108.06006,87.84C295.1499,275.81006,284,286.1499,284,304c0,15.55005,17.21,21.64,39,29.35,2.56226.90649,5.20215,1.84167,7.89673,2.81762C314.99512,348.67175,287.66357,356,256,356c-31.66431,0-58.99561-7.32812-74.897-19.83228,2.69482-.97607,5.33471-1.91125,7.897-2.81774,21.79-7.71,39-13.79993,39-29.35,0-15.77-11.55-24.5-23.79-33.75C189.10986,258.84,172,245.8999,172,216V184a27.98126,27.98126,0,0,0,48.023,19.54517c-.00415.15258-.023.30127-.023.45483a16.01833,16.01833,0,0,0,16,16h4a4,4,0,0,0,0-8h-4a8,8,0,0,1,0-16h4a4,4,0,0,0,0-8h-4a15.89893,15.89893,0,0,0-8.80566,2.655A27.8201,27.8201,0,0,0,227.70972,180h24.58056a28,28,0,1,0,55.41944,0h28.34057A64.4971,64.4971,0,0,1,334.98,193.83a16.58193,16.58193,0,0,1-2.37012,6.01,5.68853,5.68853,0,0,1-3.96,2.5c-1.00976.16-2.87988.31994-4.01953-.65a3.0808,3.0808,0,0,1-.69043-3.37988c.66992-1.90015,3.22022-2.31006,4.16992-2.3501A3.97218,3.97218,0,0,0,328,188.03a14.588,14.588,0,0,0-6.35986,1.09,12.04344,12.04344,0,0,0-5.48,4.64,12.68053,12.68053,0,0,0,.5,14.2c4.35009,5.66,10.6997,5.65,12.77,5.62a17.577,17.577,0,0,0,12.38964-5.42005A28.37722,28.37722,0,0,0,347.9502,197.75,75.42206,75.42206,0,0,0,351.47876,180H352a4.00851,4.00851,0,0,0,2.834-1.17383l3.02588-3.02612a12.88426,12.88426,0,0,1,9.64966-3.79151A13.1959,13.1959,0,0,1,380,185.31543V188.51a12.90943,12.90943,0,0,1-8.1499,12.04L345.29,211.17993a4.009,4.009,0,0,0-2.34009,2.55C335.45,238.45,320.8999,251.93994,308.06006,263.84Z"/></g></svg>
